<svg xmlns="http://www.w3.org/2000/svg" xmlns:xlink="http://www.w3.org/1999/xlink" contentStyleType="text/css" data-diagram-type="SEQUENCE" height="1325px" preserveAspectRatio="none" style="width:1591px;height:1325px;background:#FFFFFF;" version="1.1" viewBox="0 0 1591 1325" width="1591px" zoomAndPan="magnify"><defs/><g><rect fill="#FFFFFF" fill-opacity="0.00000" height="337.7031" style="stroke:#000000;stroke-width:1.5;" width="1343.1089" x="241.7646" y="888.75"/><g><title>Advertising buyer</title><rect fill="#FFFFFF" fill-opacity="0.00000" height="1160.8438" width="8" x="58.0825" y="82.6094"/><line style="stroke:#181818;stroke-width:0.5;stroke-dasharray:5.0,5.0;" x1="62" x2="62" y1="82.6094" y2="1243.4531"/></g><g><title>Advertising seller</title><rect fill="#FFFFFF" fill-opacity="0.00000" height="1160.8438" width="8" x="181.4648" y="82.6094"/><line style="stroke:#181818;stroke-width:0.5;stroke-dasharray:5.0,5.0;" x1="185.165" x2="185.165" y1="82.6094" y2="1243.4531"/></g><g><title>Administrator</title><rect fill="#FFFFFF" fill-opacity="0.00000" height="1160.8438" width="8" x="291.999" y="82.6094"/><line style="stroke:#181818;stroke-width:0.5;stroke-dasharray:5.0,5.0;" x1="295.7646" x2="295.7646" y1="82.6094" y2="1243.4531"/></g><g><title>UI</title><rect fill="#FFFFFF" fill-opacity="0.00000" height="1160.8438" width="8" x="654.9131" y="82.6094"/><line style="stroke:#181818;stroke-width:0.5;stroke-dasharray:5.0,5.0;" x1="658.9131" x2="658.9131" y1="82.6094" y2="1243.4531"/></g><g><title>Collaborator API</title><rect fill="#FFFFFF" fill-opacity="0.00000" height="1160.8438" width="8" x="850.1729" y="82.6094"/><line style="stroke:#181818;stroke-width:0.5;stroke-dasharray:5.0,5.0;" x1="853.8145" x2="853.8145" y1="82.6094" y2="1243.4531"/></g><g><title>Grabber service</title><rect fill="#FFFFFF" fill-opacity="0.00000" height="1160.8438" width="8" x="975.3276" y="82.6094"/><line style="stroke:#181818;stroke-width:0.5;stroke-dasharray:5.0,5.0;" x1="978.5313" x2="978.5313" y1="82.6094" y2="1243.4531"/></g><g><title>BERT service</title><rect fill="#FFFFFF" fill-opacity="0.00000" height="1160.8438" width="8" x="1091.9102" y="82.6094"/><line style="stroke:#181818;stroke-width:0.5;stroke-dasharray:5.0,5.0;" x1="1095.124" x2="1095.124" y1="82.6094" y2="1243.4531"/></g><g><title>Elasticsearch</title><rect fill="#FFFFFF" fill-opacity="0.00000" height="1160.8438" width="8" x="1265.7852" y="82.6094"/><line style="stroke:#181818;stroke-width:0.5;stroke-dasharray:5.0,5.0;" x1="1269.1577" x2="1269.1577" y1="82.6094" y2="1243.4531"/></g><g><title>Admin panel</title><rect fill="#FFFFFF" fill-opacity="0.00000" height="1160.8438" width="8" x="1370.3262" y="82.6094"/><line style="stroke:#181818;stroke-width:0.5;stroke-dasharray:5.0,5.0;" x1="1373.4126" x2="1373.4126" y1="82.6094" y2="1243.4531"/></g><g><title>Scheduler</title><rect fill="#FFFFFF" fill-opacity="0.00000" height="1160.8438" width="8" x="1464.7603" y="82.6094"/><line style="stroke:#181818;stroke-width:0.5;stroke-dasharray:5.0,5.0;" x1="1468.2397" x2="1468.2397" y1="82.6094" y2="1243.4531"/></g><g><title>Logger</title><rect fill="#FFFFFF" fill-opacity="0.00000" height="1160.8438" width="8" x="1542.0771" y="82.6094"/><line style="stroke:#181818;stroke-width:0.5;stroke-dasharray:5.0,5.0;" x1="1545.2808" x2="1545.2808" y1="82.6094" y2="1243.4531"/></g><g><text fill="#000000" font-family="sans-serif" font-size="14" lengthAdjust="spacing" textLength="108.165" x="5" y="79.5332">Advertising buyer</text><ellipse cx="62.0825" cy="13.5" fill="#E2E2F0" rx="8" ry="8" style="stroke:#181818;stroke-width:0.5;"/><path d="M62.0825,21.5 L62.0825,48.5 M49.0825,29.5 L75.0825,29.5 M62.0825,48.5 L49.0825,63.5 M62.0825,48.5 L75.0825,63.5 " fill="#FFFFFF" fill-opacity="0.00000" style="stroke:#181818;stroke-width:0.5;"/></g><g><text fill="#000000" font-family="sans-serif" font-size="14" lengthAdjust="spacing" textLength="108.165" x="5" y="1256.9863">Advertising buyer</text><ellipse cx="62.0825" cy="1268.5625" fill="#E2E2F0" rx="8" ry="8" style="stroke:#181818;stroke-width:0.5;"/><path d="M62.0825,1276.5625 L62.0825,1303.5625 M49.0825,1284.5625 L75.0825,1284.5625 M62.0825,1303.5625 L49.0825,1318.5625 M62.0825,1303.5625 L75.0825,1318.5625 " fill="#FFFFFF" fill-opacity="0.00000" style="stroke:#181818;stroke-width:0.5;"/></g><g><text fill="#000000" font-family="sans-serif" font-size="14" lengthAdjust="spacing" textLength="106.5996" x="129.165" y="79.5332">Advertising seller</text><ellipse cx="185.4648" cy="13.5" fill="#E2E2F0" rx="8" ry="8" style="stroke:#181818;stroke-width:0.5;"/><path d="M185.4648,21.5 L185.4648,48.5 M172.4648,29.5 L198.4648,29.5 M185.4648,48.5 L172.4648,63.5 M185.4648,48.5 L198.4648,63.5 " fill="#FFFFFF" fill-opacity="0.00000" style="stroke:#181818;stroke-width:0.5;"/></g><g><text fill="#000000" font-family="sans-serif" font-size="14" lengthAdjust="spacing" textLength="106.5996" x="129.165" y="1256.9863">Advertising seller</text><ellipse cx="185.4648" cy="1268.5625" fill="#E2E2F0" rx="8" ry="8" style="stroke:#181818;stroke-width:0.5;"/><path d="M185.4648,1276.5625 L185.4648,1303.5625 M172.4648,1284.5625 L198.4648,1284.5625 M185.4648,1303.5625 L172.4648,1318.5625 M185.4648,1303.5625 L198.4648,1318.5625 " fill="#FFFFFF" fill-opacity="0.00000" style="stroke:#181818;stroke-width:0.5;"/></g><g><text fill="#000000" font-family="sans-serif" font-size="14" lengthAdjust="spacing" textLength="82.4688" x="251.7646" y="79.5332">Administrator</text><ellipse cx="295.999" cy="13.5" fill="#E2E2F0" rx="8" ry="8" style="stroke:#181818;stroke-width:0.5;"/><path d="M295.999,21.5 L295.999,48.5 M282.999,29.5 L308.999,29.5 M295.999,48.5 L282.999,63.5 M295.999,48.5 L308.999,63.5 " fill="#FFFFFF" fill-opacity="0.00000" style="stroke:#181818;stroke-width:0.5;"/></g><g><text fill="#000000" font-family="sans-serif" font-size="14" lengthAdjust="spacing" textLength="82.4688" x="251.7646" y="1256.9863">Administrator</text><ellipse cx="295.999" cy="1268.5625" fill="#E2E2F0" rx="8" ry="8" style="stroke:#181818;stroke-width:0.5;"/><path d="M295.999,1276.5625 L295.999,1303.5625 M282.999,1284.5625 L308.999,1284.5625 M295.999,1303.5625 L282.999,1318.5625 M295.999,1303.5625 L308.999,1318.5625 " fill="#FFFFFF" fill-opacity="0.00000" style="stroke:#181818;stroke-width:0.5;"/></g><g><rect fill="#E2E2F0" height="31.6094" rx="2.5" ry="2.5" style="stroke:#181818;stroke-width:0.5;" width="28" x="644.9131" y="50"/><text fill="#000000" font-family="sans-serif" font-size="14" lengthAdjust="spacing" textLength="14" x="651.9131" y="71.5332">UI</text></g><g><rect fill="#E2E2F0" height="31.6094" rx="2.5" ry="2.5" style="stroke:#181818;stroke-width:0.5;" width="28" x="644.9131" y="1242.4531"/><text fill="#000000" font-family="sans-serif" font-size="14" lengthAdjust="spacing" textLength="14" x="651.9131" y="1263.9863">UI</text></g><g><rect fill="#E2E2F0" height="31.6094" rx="2.5" ry="2.5" style="stroke:#181818;stroke-width:0.5;" width="116.7168" x="795.8145" y="50"/><text fill="#000000" font-family="sans-serif" font-size="14" lengthAdjust="spacing" textLength="102.7168" x="802.8145" y="71.5332">Collaborator API</text></g><g><rect fill="#E2E2F0" height="31.6094" rx="2.5" ry="2.5" style="stroke:#181818;stroke-width:0.5;" width="116.7168" x="795.8145" y="1242.4531"/><text fill="#000000" font-family="sans-serif" font-size="14" lengthAdjust="spacing" textLength="102.7168" x="802.8145" y="1263.9863">Collaborator API</text></g><g><rect fill="#E2E2F0" height="31.6094" rx="2.5" ry="2.5" style="stroke:#181818;stroke-width:0.5;" width="113.5928" x="922.5313" y="50"/><text fill="#000000" font-family="sans-serif" font-size="14" lengthAdjust="spacing" textLength="99.5928" x="929.5313" y="71.5332">Grabber service</text></g><g><rect fill="#E2E2F0" height="31.6094" rx="2.5" ry="2.5" style="stroke:#181818;stroke-width:0.5;" width="113.5928" x="922.5313" y="1242.4531"/><text fill="#000000" font-family="sans-serif" font-size="14" lengthAdjust="spacing" textLength="99.5928" x="929.5313" y="1263.9863">Grabber service</text></g><g><rect fill="#E2E2F0" height="31.6094" rx="2.5" ry="2.5" style="stroke:#181818;stroke-width:0.5;" width="99.5723" x="1046.124" y="50"/><text fill="#000000" font-family="sans-serif" font-size="14" lengthAdjust="spacing" textLength="85.5723" x="1053.124" y="71.5332">BERT service</text></g><g><rect fill="#E2E2F0" height="31.6094" rx="2.5" ry="2.5" style="stroke:#181818;stroke-width:0.5;" width="99.5723" x="1046.124" y="1242.4531"/><text fill="#000000" font-family="sans-serif" font-size="14" lengthAdjust="spacing" textLength="85.5723" x="1053.124" y="1263.9863">BERT service</text></g><g><rect fill="#E2E2F0" height="31.6094" rx="2.5" ry="2.5" style="stroke:#181818;stroke-width:0.5;" width="97.2549" x="1221.1577" y="50"/><text fill="#000000" font-family="sans-serif" font-size="14" lengthAdjust="spacing" textLength="83.2549" x="1228.1577" y="71.5332">Elasticsearch</text></g><g><rect fill="#E2E2F0" height="31.6094" rx="2.5" ry="2.5" style="stroke:#181818;stroke-width:0.5;" width="97.2549" x="1221.1577" y="1242.4531"/><text fill="#000000" font-family="sans-serif" font-size="14" lengthAdjust="spacing" textLength="83.2549" x="1228.1577" y="1263.9863">Elasticsearch</text></g><g><rect fill="#E2E2F0" height="31.6094" rx="2.5" ry="2.5" style="stroke:#181818;stroke-width:0.5;" width="91.8271" x="1328.4126" y="50"/><text fill="#000000" font-family="sans-serif" font-size="14" lengthAdjust="spacing" textLength="77.8271" x="1335.4126" y="71.5332">Admin panel</text></g><g><rect fill="#E2E2F0" height="31.6094" rx="2.5" ry="2.5" style="stroke:#181818;stroke-width:0.5;" width="91.8271" x="1328.4126" y="1242.4531"/><text fill="#000000" font-family="sans-serif" font-size="14" lengthAdjust="spacing" textLength="77.8271" x="1335.4126" y="1263.9863">Admin panel</text></g><g><rect fill="#E2E2F0" height="31.6094" rx="2.5" ry="2.5" style="stroke:#181818;stroke-width:0.5;" width="77.041" x="1430.2397" y="50"/><text fill="#000000" font-family="sans-serif" font-size="14" lengthAdjust="spacing" textLength="63.041" x="1437.2397" y="71.5332">Scheduler</text></g><g><rect fill="#E2E2F0" height="31.6094" rx="2.5" ry="2.5" style="stroke:#181818;stroke-width:0.5;" width="77.041" x="1430.2397" y="1242.4531"/><text fill="#000000" font-family="sans-serif" font-size="14" lengthAdjust="spacing" textLength="63.041" x="1437.2397" y="1263.9863">Scheduler</text></g><g><rect fill="#E2E2F0" height="31.6094" rx="2.5" ry="2.5" style="stroke:#181818;stroke-width:0.5;" width="57.5928" x="1517.2808" y="50"/><text fill="#000000" font-family="sans-serif" font-size="14" lengthAdjust="spacing" textLength="43.5928" x="1524.2808" y="71.5332">Logger</text></g><g><rect fill="#E2E2F0" height="31.6094" rx="2.5" ry="2.5" style="stroke:#181818;stroke-width:0.5;" width="57.5928" x="1517.2808" y="1242.4531"/><text fill="#000000" font-family="sans-serif" font-size="14" lengthAdjust="spacing" textLength="43.5928" x="1524.2808" y="1263.9863">Logger</text></g><g><polygon fill="#181818" points="646.9131,110.9609,656.9131,114.9609,646.9131,118.9609,650.9131,114.9609" style="stroke:#181818;stroke-width:1;"/><line style="stroke:#181818;stroke-width:1;" x1="185.4648" x2="652.9131" y1="114.9609" y2="114.9609"/><text fill="#000000" font-family="sans-serif" font-size="13" lengthAdjust="spacing" textLength="98.979" x="192.4648" y="110.1045">Register platform</text></g><g><polygon fill="#181818" points="842.1729,141.3125,852.1729,145.3125,842.1729,149.3125,846.1729,145.3125" style="stroke:#181818;stroke-width:1;"/><line style="stroke:#181818;stroke-width:1;" x1="658.9131" x2="848.1729" y1="145.3125" y2="145.3125"/><text fill="#000000" font-family="sans-serif" font-size="13" lengthAdjust="spacing" textLength="156.7998" x="665.9131" y="140.4561">Register platform operation</text></g><g><polygon fill="#181818" points="1083.9102,171.6641,1093.9102,175.6641,1083.9102,179.6641,1087.9102,175.6641" style="stroke:#181818;stroke-width:1;"/><line style="stroke:#181818;stroke-width:1;" x1="854.1729" x2="1089.9102" y1="175.6641" y2="175.6641"/><text fill="#000000" font-family="sans-serif" font-size="13" lengthAdjust="spacing" textLength="112.709" x="861.1729" y="170.8076">Vectorize keywords</text></g><g><polygon fill="#181818" points="865.1729,202.0156,855.1729,206.0156,865.1729,210.0156,861.1729,206.0156" style="stroke:#181818;stroke-width:1;"/><line style="stroke:#181818;stroke-width:1;stroke-dasharray:2.0,2.0;" x1="859.1729" x2="1094.9102" y1="206.0156" y2="206.0156"/><text fill="#000000" font-family="sans-serif" font-size="13" lengthAdjust="spacing" textLength="37.5718" x="871.1729" y="201.1592">Vector</text></g><g><polygon fill="#181818" points="1257.7852,232.3672,1267.7852,236.3672,1257.7852,240.3672,1261.7852,236.3672" style="stroke:#181818;stroke-width:1;"/><line style="stroke:#181818;stroke-width:1;" x1="854.1729" x2="1263.7852" y1="236.3672" y2="236.3672"/><text fill="#000000" font-family="sans-serif" font-size="13" lengthAdjust="spacing" textLength="310.3306" x="861.1729" y="231.5107">Store parameters + vector of keywords(dense_vector)</text></g><g><polygon fill="#181818" points="865.1729,262.7188,855.1729,266.7188,865.1729,270.7188,861.1729,266.7188" style="stroke:#181818;stroke-width:1;"/><line style="stroke:#181818;stroke-width:1;stroke-dasharray:2.0,2.0;" x1="859.1729" x2="1268.7852" y1="266.7188" y2="266.7188"/><text fill="#000000" font-family="sans-serif" font-size="13" lengthAdjust="spacing" textLength="110.5508" x="871.1729" y="261.8623">Successfully saved</text></g><g><polygon fill="#181818" points="669.9131,293.0703,659.9131,297.0703,669.9131,301.0703,665.9131,297.0703" style="stroke:#181818;stroke-width:1;"/><line style="stroke:#181818;stroke-width:1;stroke-dasharray:2.0,2.0;" x1="663.9131" x2="853.1729" y1="297.0703" y2="297.0703"/><text fill="#000000" font-family="sans-serif" font-size="13" lengthAdjust="spacing" textLength="53.479" x="675.9131" y="292.2139">response</text></g><g><polygon fill="#181818" points="196.4648,323.4219,186.4648,327.4219,196.4648,331.4219,192.4648,327.4219" style="stroke:#181818;stroke-width:1;"/><line style="stroke:#181818;stroke-width:1;stroke-dasharray:2.0,2.0;" x1="190.4648" x2="657.9131" y1="327.4219" y2="327.4219"/><text fill="#000000" font-family="sans-serif" font-size="13" lengthAdjust="spacing" textLength="67.9199" x="202.4648" y="322.5654">Show result</text></g><g><polygon fill="#181818" points="646.9131,353.7734,656.9131,357.7734,646.9131,361.7734,650.9131,357.7734" style="stroke:#181818;stroke-width:1;"/><line style="stroke:#181818;stroke-width:1;" x1="62.0825" x2="652.9131" y1="357.7734" y2="357.7734"/><text fill="#000000" font-family="sans-serif" font-size="13" lengthAdjust="spacing" textLength="190.0234" x="69.0825" y="352.917">Fill parameters and search offers</text></g><g><polygon fill="#181818" points="842.1729,384.125,852.1729,388.125,842.1729,392.125,846.1729,388.125" style="stroke:#181818;stroke-width:1;"/><line style="stroke:#181818;stroke-width:1;" x1="658.9131" x2="848.1729" y1="388.125" y2="388.125"/><text fill="#000000" font-family="sans-serif" font-size="13" lengthAdjust="spacing" textLength="135.1353" x="665.9131" y="383.2686">Search offers operation</text></g><g><polygon fill="#181818" points="967.3276,414.4766,977.3276,418.4766,967.3276,422.4766,971.3276,418.4766" style="stroke:#181818;stroke-width:1;"/><line style="stroke:#181818;stroke-width:1;" x1="854.1729" x2="973.3276" y1="418.4766" y2="418.4766"/><text fill="#000000" font-family="sans-serif" font-size="13" lengthAdjust="spacing" textLength="100.4136" x="861.1729" y="413.6201">Grab HTML meta</text></g><g><polygon fill="#181818" points="865.1729,444.8281,855.1729,448.8281,865.1729,452.8281,861.1729,448.8281" style="stroke:#181818;stroke-width:1;"/><line style="stroke:#181818;stroke-width:1;stroke-dasharray:2.0,2.0;" x1="859.1729" x2="978.3276" y1="448.8281" y2="448.8281"/><text fill="#000000" font-family="sans-serif" font-size="13" lengthAdjust="spacing" textLength="67.9009" x="871.1729" y="443.9717">HTML meta</text></g><g><polygon fill="#181818" points="1083.9102,475.1797,1093.9102,479.1797,1083.9102,483.1797,1087.9102,479.1797" style="stroke:#181818;stroke-width:1;"/><line style="stroke:#181818;stroke-width:1;" x1="854.1729" x2="1089.9102" y1="479.1797" y2="479.1797"/><text fill="#000000" font-family="sans-serif" font-size="13" lengthAdjust="spacing" textLength="148.8398" x="861.1729" y="474.3232">Vectorize buyer keywords</text></g><g><polygon fill="#181818" points="865.1729,505.5313,855.1729,509.5313,865.1729,513.5313,861.1729,509.5313" style="stroke:#181818;stroke-width:1;"/><line style="stroke:#181818;stroke-width:1;stroke-dasharray:2.0,2.0;" x1="859.1729" x2="1094.9102" y1="509.5313" y2="509.5313"/><text fill="#000000" font-family="sans-serif" font-size="13" lengthAdjust="spacing" textLength="37.5718" x="871.1729" y="504.6748">Vector</text></g><g><polygon fill="#181818" points="1257.7852,535.8828,1267.7852,539.8828,1257.7852,543.8828,1261.7852,539.8828" style="stroke:#181818;stroke-width:1;"/><line style="stroke:#181818;stroke-width:1;" x1="854.1729" x2="1263.7852" y1="539.8828" y2="539.8828"/><text fill="#000000" font-family="sans-serif" font-size="13" lengthAdjust="spacing" textLength="391.6123" x="861.1729" y="535.0264">Find by parameters(country, language, ...) and similarity, limit top 10</text></g><g><polygon fill="#181818" points="865.1729,566.2344,855.1729,570.2344,865.1729,574.2344,861.1729,570.2344" style="stroke:#181818;stroke-width:1;"/><line style="stroke:#181818;stroke-width:1;stroke-dasharray:2.0,2.0;" x1="859.1729" x2="1268.7852" y1="570.2344" y2="570.2344"/><text fill="#000000" font-family="sans-serif" font-size="13" lengthAdjust="spacing" textLength="43.3481" x="871.1729" y="565.3779">Results</text></g><g><polygon fill="#181818" points="669.9131,596.5859,659.9131,600.5859,669.9131,604.5859,665.9131,600.5859" style="stroke:#181818;stroke-width:1;"/><line style="stroke:#181818;stroke-width:1;stroke-dasharray:2.0,2.0;" x1="663.9131" x2="853.1729" y1="600.5859" y2="600.5859"/><text fill="#000000" font-family="sans-serif" font-size="13" lengthAdjust="spacing" textLength="127.1689" x="675.9131" y="595.7295">Response with results</text></g><g><polygon fill="#181818" points="73.0825,626.9375,63.0825,630.9375,73.0825,634.9375,69.0825,630.9375" style="stroke:#181818;stroke-width:1;"/><line style="stroke:#181818;stroke-width:1;stroke-dasharray:2.0,2.0;" x1="67.0825" x2="657.9131" y1="630.9375" y2="630.9375"/><text fill="#000000" font-family="sans-serif" font-size="13" lengthAdjust="spacing" textLength="74.4199" x="79.0825" y="626.0811">Show results</text></g><g><polygon fill="#181818" points="646.9131,657.2891,656.9131,661.2891,646.9131,665.2891,650.9131,661.2891" style="stroke:#181818;stroke-width:1;"/><line style="stroke:#181818;stroke-width:1;" x1="62.0825" x2="652.9131" y1="661.2891" y2="661.2891"/><text fill="#000000" font-family="sans-serif" font-size="13" lengthAdjust="spacing" textLength="161.1479" x="69.0825" y="656.4326">Selects platform and buy ad</text></g><g><polygon fill="#181818" points="842.1729,687.6406,852.1729,691.6406,842.1729,695.6406,846.1729,691.6406" style="stroke:#181818;stroke-width:1;"/><line style="stroke:#181818;stroke-width:1;" x1="658.9131" x2="848.1729" y1="691.6406" y2="691.6406"/><text fill="#000000" font-family="sans-serif" font-size="13" lengthAdjust="spacing" textLength="80.2217" x="665.9131" y="686.7842">Buy operation</text></g><g><polygon fill="#181818" points="1257.7852,717.9922,1267.7852,721.9922,1257.7852,725.9922,1261.7852,721.9922" style="stroke:#181818;stroke-width:1;"/><line style="stroke:#181818;stroke-width:1;" x1="854.1729" x2="1263.7852" y1="721.9922" y2="721.9922"/><text fill="#000000" font-family="sans-serif" font-size="13" lengthAdjust="spacing" textLength="162.6016" x="861.1729" y="717.1357">Get selected document data</text></g><g><polygon fill="#181818" points="865.1729,748.3438,855.1729,752.3438,865.1729,756.3438,861.1729,752.3438" style="stroke:#181818;stroke-width:1;"/><line style="stroke:#181818;stroke-width:1;stroke-dasharray:2.0,2.0;" x1="859.1729" x2="1268.7852" y1="752.3438" y2="752.3438"/><text fill="#000000" font-family="sans-serif" font-size="13" lengthAdjust="spacing" textLength="88.1626" x="871.1729" y="747.4873">Document data</text></g><g><polygon fill="#181818" points="1083.9102,778.6953,1093.9102,782.6953,1083.9102,786.6953,1087.9102,782.6953" style="stroke:#181818;stroke-width:1;"/><line style="stroke:#181818;stroke-width:1;" x1="854.1729" x2="1089.9102" y1="782.6953" y2="782.6953"/><text fill="#000000" font-family="sans-serif" font-size="13" lengthAdjust="spacing" textLength="182.7998" x="861.1729" y="777.8389">Recalculate vector by keywords</text></g><g><polygon fill="#181818" points="865.1729,809.0469,855.1729,813.0469,865.1729,817.0469,861.1729,813.0469" style="stroke:#181818;stroke-width:1;"/><line style="stroke:#181818;stroke-width:1;stroke-dasharray:2.0,2.0;" x1="859.1729" x2="1094.9102" y1="813.0469" y2="813.0469"/><text fill="#000000" font-family="sans-serif" font-size="13" lengthAdjust="spacing" textLength="114.1689" x="871.1729" y="808.1904">Recalculated vector</text></g><g><polygon fill="#181818" points="1257.7852,839.3984,1267.7852,843.3984,1257.7852,847.3984,1261.7852,843.3984" style="stroke:#181818;stroke-width:1;"/><line style="stroke:#181818;stroke-width:1;" x1="854.1729" x2="1263.7852" y1="843.3984" y2="843.3984"/><text fill="#000000" font-family="sans-serif" font-size="13" lengthAdjust="spacing" textLength="261.5615" x="861.1729" y="838.542">Update values(orderCount, vector, keywords)</text></g><g><polygon fill="#181818" points="646.9131,869.75,656.9131,873.75,646.9131,877.75,650.9131,873.75" style="stroke:#181818;stroke-width:1;"/><line style="stroke:#181818;stroke-width:1;" x1="295.999" x2="652.9131" y1="873.75" y2="873.75"/><text fill="#000000" font-family="sans-serif" font-size="13" lengthAdjust="spacing" textLength="338.9141" x="302.999" y="868.8936">Change settings operation(change vector size as example)</text></g><path d="M241.7646,888.75 L301.9355,888.75 L301.9355,897.1016 L291.9355,907.1016 L241.7646,907.1016 L241.7646,888.75 " fill="#EEEEEE" style="stroke:#000000;stroke-width:1.5;"/><rect fill="#FFFFFF" fill-opacity="0.00000" height="337.7031" style="stroke:#000000;stroke-width:1.5;" width="1343.1089" x="241.7646" y="888.75"/><text fill="#000000" font-family="sans-serif" font-size="13" font-weight="bold" lengthAdjust="spacing" textLength="15.1709" x="256.7646" y="903.2451">alt</text><text fill="#000000" font-family="sans-serif" font-size="11" font-weight="bold" lengthAdjust="spacing" textLength="53.7593" x="316.9355" y="902.1689">[Run now]</text><g><polygon fill="#181818" points="842.1729,925.4531,852.1729,929.4531,842.1729,933.4531,846.1729,929.4531" style="stroke:#181818;stroke-width:1;"/><line style="stroke:#181818;stroke-width:1;" x1="658.9131" x2="848.1729" y1="929.4531" y2="929.4531"/><text fill="#000000" font-family="sans-serif" font-size="13" lengthAdjust="spacing" textLength="171.2598" x="665.9131" y="924.5967">Recalculate vectors operation</text></g><g><polygon fill="#181818" points="1257.7852,955.8047,1267.7852,959.8047,1257.7852,963.8047,1261.7852,959.8047" style="stroke:#181818;stroke-width:1;"/><line style="stroke:#181818;stroke-width:1;" x1="854.1729" x2="1263.7852" y1="959.8047" y2="959.8047"/><text fill="#000000" font-family="sans-serif" font-size="13" lengthAdjust="spacing" textLength="87.4326" x="861.1729" y="954.9482">Update vectors</text></g><g><polygon fill="#181818" points="865.1729,986.1563,855.1729,990.1563,865.1729,994.1563,861.1729,990.1563" style="stroke:#181818;stroke-width:1;"/><line style="stroke:#181818;stroke-width:1;stroke-dasharray:2.0,2.0;" x1="859.1729" x2="1268.7852" y1="990.1563" y2="990.1563"/><text fill="#000000" font-family="sans-serif" font-size="13" lengthAdjust="spacing" textLength="49.1309" x="871.1729" y="985.2998">Success</text></g><g><polygon fill="#181818" points="669.9131,1016.5078,659.9131,1020.5078,669.9131,1024.5078,665.9131,1020.5078" style="stroke:#181818;stroke-width:1;"/><line style="stroke:#181818;stroke-width:1;stroke-dasharray:2.0,2.0;" x1="663.9131" x2="853.1729" y1="1020.5078" y2="1020.5078"/><text fill="#000000" font-family="sans-serif" font-size="13" lengthAdjust="spacing" textLength="58.5381" x="675.9131" y="1015.6514">Response</text></g><g><polygon fill="#181818" points="306.999,1046.8594,296.999,1050.8594,306.999,1054.8594,302.999,1050.8594" style="stroke:#181818;stroke-width:1;"/><line style="stroke:#181818;stroke-width:1;stroke-dasharray:2.0,2.0;" x1="300.999" x2="657.9131" y1="1050.8594" y2="1050.8594"/><text fill="#000000" font-family="sans-serif" font-size="13" lengthAdjust="spacing" textLength="67.9199" x="312.999" y="1046.0029">Show result</text></g><line style="stroke:#000000;stroke-width:1;stroke-dasharray:2.0,2.0;" x1="241.7646" x2="1584.8735" y1="1059.8594" y2="1059.8594"/><text fill="#000000" font-family="sans-serif" font-size="11" font-weight="bold" lengthAdjust="spacing" textLength="56.23" x="246.7646" y="1071.2783">[Schedule]</text><g><polygon fill="#181818" points="1456.7603,1093.0469,1466.7603,1097.0469,1456.7603,1101.0469,1460.7603,1097.0469" style="stroke:#181818;stroke-width:1;"/><line style="stroke:#181818;stroke-width:1;" x1="658.9131" x2="1462.7603" y1="1097.0469" y2="1097.0469"/><text fill="#000000" font-family="sans-serif" font-size="13" lengthAdjust="spacing" textLength="54.209" x="665.9131" y="1092.1904">Schedule</text></g><g><polygon fill="#181818" points="865.1729,1123.3984,855.1729,1127.3984,865.1729,1131.3984,861.1729,1127.3984" style="stroke:#181818;stroke-width:1;"/><line style="stroke:#181818;stroke-width:1;" x1="859.1729" x2="1467.7603" y1="1127.3984" y2="1127.3984"/><text fill="#000000" font-family="sans-serif" font-size="13" lengthAdjust="spacing" textLength="139.458" x="871.1729" y="1122.542">Run vector recalculation</text></g><g><polygon fill="#181818" points="1257.7852,1153.75,1267.7852,1157.75,1257.7852,1161.75,1261.7852,1157.75" style="stroke:#181818;stroke-width:1;"/><line style="stroke:#181818;stroke-width:1;" x1="854.1729" x2="1263.7852" y1="1157.75" y2="1157.75"/><text fill="#000000" font-family="sans-serif" font-size="13" lengthAdjust="spacing" textLength="87.4326" x="861.1729" y="1152.8936">Update vectors</text></g><g><polygon fill="#181818" points="865.1729,1184.1016,855.1729,1188.1016,865.1729,1192.1016,861.1729,1188.1016" style="stroke:#181818;stroke-width:1;"/><line style="stroke:#181818;stroke-width:1;stroke-dasharray:2.0,2.0;" x1="859.1729" x2="1268.7852" y1="1188.1016" y2="1188.1016"/><text fill="#000000" font-family="sans-serif" font-size="13" lengthAdjust="spacing" textLength="49.1309" x="871.1729" y="1183.2451">Success</text></g><g><polygon fill="#181818" points="1534.0771,1214.4531,1544.0771,1218.4531,1534.0771,1222.4531,1538.0771,1218.4531" style="stroke:#181818;stroke-width:1;"/><line style="stroke:#181818;stroke-width:1;stroke-dasharray:2.0,2.0;" x1="854.1729" x2="1540.0771" y1="1218.4531" y2="1218.4531"/><text fill="#000000" font-family="sans-serif" font-size="13" lengthAdjust="spacing" textLength="21.6899" x="861.1729" y="1213.5967">Log</text></g><!--SRC=[hPHDZzem48Rl-HKZJg2ogBtcK6cNibkahRHAbbuh4m_1gXD7jWEblxvZn_amoqfxA1TipplEl8_7PeLL6c1spq-ehJ2YBc7VNb3FW1bW_C6D4-PLaSYWb8CgzvDHLebQ6AiPJOE2LfAaOPHTY8RL5cQxhG_jjl7oMad9zihdmlrB9wB_MFMasNwFcghG9r6W5vNTMYnys6IlaSejn9ADP8Pc1fakZbwpoME5DmGqHZdQUN7JM9SNH-HjZyNqirZqhCeoAAGV9lJh4SBTLoAIGeOb0QHv8vazA5qbkwsB4OWRGL0D4Z2XweG4JkTSfl0JtO68lmY_yN9Mcfl4yxZhT-e4VT8cJo6dEP9LpIgaJnZu12Sl0dKOTfbph0t-wWABP9EFE-PjKQ0nXrRA2nXsGjxj7dnfD8sYN6-7rdhVb7XKPnTkfUs0-CxhUJmAAQTLiPf3Ts1Kru5MfdpoQU0jcz0dARWcWk-lFvw1TcL9M1-zZA5tgFgByd6sZuAgtbycFkQ5QckhBqkGh2vRLk8ILglLelCdAY6P5jQ5QMp1gWQ-V8vuPvwOYI1d0JASXJq6fcOaxi56mCqrRZeKgjwC3URg8RUKFGLDEM_nEgTFQDq3GNiW1wwAja9gVSu8vRJuRr4aWfnXmMJHqlUnRq0YzmxgYPW7zRIQNSFzDaosQEQKZthjk2-3TZdik-XQpztsG69zf8D1CcCjlNgJRfeNNIGKPrm_q9N6Fwng92uI9YraRGsrEYT0l-Z-NdkRTgaJtoY-q_deZVisPbtrmF1jV_HaBBvfAAbD-cThKkVmTgLnT5WVpP37m40FllwFZ-vvJ85Up0HhJaVp3m00]--></g></svg>